<mxfile host="app.diagrams.net" modified="2023-11-20T09:14:26.442Z" agent="Mozilla/5.0 (Windows NT 10.0; Win64; x64) AppleWebKit/537.36 (KHTML, like Gecko) Chrome/119.0.0.0 Safari/537.36" etag="fQLT74gYfSjXB9NSmMY0" version="22.1.3" type="github">
  <diagram name="第 1 页" id="TawYcXUqla0kLWt6vWEC">
    <mxGraphModel dx="989" dy="545" grid="1" gridSize="10" guides="1" tooltips="1" connect="1" arrows="1" fold="1" page="1" pageScale="1" pageWidth="1169" pageHeight="827" math="0" shadow="0">
      <root>
        <mxCell id="0" />
        <mxCell id="1" parent="0" />
        <mxCell id="3FW7kcScqrPQYVr0MY-f-14" value="" style="shape=cylinder3;whiteSpace=wrap;html=1;boundedLbl=1;backgroundOutline=1;size=15;fillColor=#fff2cc;strokeColor=#d6b656;" vertex="1" parent="1">
          <mxGeometry x="507.5" y="371" width="79.5" height="124.67" as="geometry" />
        </mxCell>
        <mxCell id="3FW7kcScqrPQYVr0MY-f-1" value="主角&lt;br&gt;" style="shape=umlActor;verticalLabelPosition=bottom;verticalAlign=top;html=1;outlineConnect=0;" vertex="1" parent="1">
          <mxGeometry x="520" y="371" width="54.5" height="109" as="geometry" />
        </mxCell>
        <mxCell id="3FW7kcScqrPQYVr0MY-f-8" value="" style="endArrow=classic;html=1;rounded=0;edgeStyle=orthogonalEdgeStyle;curved=1;dashed=1;dashPattern=8 8;" edge="1" parent="1">
          <mxGeometry width="50" height="50" relative="1" as="geometry">
            <mxPoint x="410" y="250" as="sourcePoint" />
            <mxPoint x="600" y="440" as="targetPoint" />
            <Array as="points">
              <mxPoint x="410" y="440" />
            </Array>
          </mxGeometry>
        </mxCell>
        <mxCell id="3FW7kcScqrPQYVr0MY-f-11" value="" style="endArrow=classic;html=1;rounded=0;" edge="1" parent="1">
          <mxGeometry width="50" height="50" relative="1" as="geometry">
            <mxPoint x="410" y="220" as="sourcePoint" />
            <mxPoint x="420" y="330" as="targetPoint" />
          </mxGeometry>
        </mxCell>
        <mxCell id="3FW7kcScqrPQYVr0MY-f-19" value="" style="shape=cylinder3;whiteSpace=wrap;html=1;boundedLbl=1;backgroundOutline=1;size=5;fillColor=#f8cecc;strokeColor=#b85450;" vertex="1" parent="1">
          <mxGeometry x="532.25" y="413" width="30" height="52.5" as="geometry" />
        </mxCell>
        <mxCell id="3FW7kcScqrPQYVr0MY-f-12" value="攻击轨迹" style="text;html=1;strokeColor=none;fillColor=none;align=center;verticalAlign=middle;whiteSpace=wrap;rounded=0;fontSize=16;fontStyle=2" vertex="1" parent="1">
          <mxGeometry x="610" y="424.25" width="120" height="30" as="geometry" />
        </mxCell>
        <mxCell id="3FW7kcScqrPQYVr0MY-f-13" value="目前攻击进度" style="text;html=1;strokeColor=none;fillColor=none;align=center;verticalAlign=middle;whiteSpace=wrap;rounded=0;fontSize=16;" vertex="1" parent="1">
          <mxGeometry x="410" y="250" width="120" height="30" as="geometry" />
        </mxCell>
        <mxCell id="3FW7kcScqrPQYVr0MY-f-15" value="实际受击包围盒" style="text;html=1;strokeColor=#d6b656;fillColor=#fff2cc;align=center;verticalAlign=middle;whiteSpace=wrap;rounded=0;fontSize=16;" vertex="1" parent="1">
          <mxGeometry x="574.5" y="330" width="125.5" height="30" as="geometry" />
        </mxCell>
        <mxCell id="3FW7kcScqrPQYVr0MY-f-18" value="预判受击盒&lt;br&gt;5帧内无法移动开的范围" style="text;html=1;strokeColor=#b85450;fillColor=#f8cecc;align=center;verticalAlign=middle;whiteSpace=wrap;rounded=0;fontSize=16;" vertex="1" parent="1">
          <mxGeometry x="320" y="465.5" width="180" height="44.5" as="geometry" />
        </mxCell>
      </root>
    </mxGraphModel>
  </diagram>
</mxfile>
